HIERARCHY
ROOT Hips
{
	OFFSET 0.000000 0.000000 0.000000
	CHANNELS 6 Xposition Yposition Zposition Zrotation Yrotation Xrotation 
	JOINT LHipJoint
	{
		OFFSET 0.000000 0.000000 0.000000
		CHANNELS 3 Zrotation Yrotation Xrotation
		JOINT LeftUpLeg
		{
			OFFSET 1.363060 -1.794630 0.839290
			CHANNELS 3 Zrotation Yrotation Xrotation
			JOINT LeftLeg
			{
				OFFSET 2.448110 -6.726130 0.000000
				CHANNELS 3 Zrotation Yrotation Xrotation
				JOINT LeftFoot
				{
					OFFSET 2.562200 -7.039590 0.000000
					CHANNELS 3 Zrotation Yrotation Xrotation
					JOINT LeftToeBase
					{
						OFFSET 0.157640 -0.433110 2.322550
						CHANNELS 3 Zrotation Yrotation Xrotation
						End Site
						{
							OFFSET 0.000000 0.000000 0.000000
						}
					}
				}
			}
		}
	}
	JOINT RHipJoint
	{
		OFFSET 0.000000 0.000000 0.000000
		CHANNELS 3 Zrotation Yrotation Xrotation
		JOINT RightUpLeg
		{
			OFFSET -1.305520 -1.794630 0.839290
			CHANNELS 3 Zrotation Yrotation Xrotation
			JOINT RightLeg
			{
				OFFSET -2.542530 -6.985550 0.000000
				CHANNELS 3 Zrotation Yrotation Xrotation
				JOINT RightFoot
				{
					OFFSET -2.568260 -7.056230 0.000000
					CHANNELS 3 Zrotation Yrotation Xrotation
					JOINT RightToeBase
					{
						OFFSET -0.164730 -0.452590 2.363150
						CHANNELS 3 Zrotation Yrotation Xrotation
						End Site
						{
							OFFSET 0.000000 0.000000 0.000000
						}
					}
				}
			}
		}
	}
	JOINT LowerBack
	{
		OFFSET 0.000000 0.000000 0.000000
		CHANNELS 3 Zrotation Yrotation Xrotation
		JOINT Spine
		{
			OFFSET 0.028270 2.035590 -0.193380
			CHANNELS 3 Zrotation Yrotation Xrotation
			JOINT Spine1
			{
				OFFSET 0.056720 2.048850 -0.042750
				CHANNELS 3 Zrotation Yrotation Xrotation
				JOINT Neck
				{
					OFFSET 0.000000 0.000000 0.000000
					CHANNELS 3 Zrotation Yrotation Xrotation
					JOINT Neck1
					{
						OFFSET -0.054170 1.746240 0.172020
						CHANNELS 3 Zrotation Yrotation Xrotation
						JOINT Head
						{
							OFFSET 0.104070 1.761360 -0.123970
							CHANNELS 3 Zrotation Yrotation Xrotation
							End Site
							{
								OFFSET 0.000000 0.000000 0.000000
							}
						}
					}
				}
				JOINT LeftShoulder
				{
					OFFSET 0.000000 0.000000 0.000000
					CHANNELS 3 Zrotation Yrotation Xrotation
					JOINT LeftArm
					{
						OFFSET 3.362410 1.200890 -0.311210
						CHANNELS 3 Zrotation Yrotation Xrotation
						JOINT LeftForeArm
						{
							OFFSET 4.983000 -0.000000 -0.000000
							CHANNELS 3 Zrotation Yrotation Xrotation
							JOINT LeftHand
							{
								OFFSET 3.483560 -0.000000 -0.000000
								CHANNELS 3 Zrotation Yrotation Xrotation
								JOINT LeftFingerBase
								{
									OFFSET 0.000000 0.000000 0.000000
									CHANNELS 3 Zrotation Yrotation Xrotation
									JOINT LeftHandIndex1
									{
										OFFSET 0.715260 -0.000000 -0.000000
										CHANNELS 3 Zrotation Yrotation Xrotation
										End Site
										{
											OFFSET 0.000000 0.000000 0.000000
										}
									}
								}
								JOINT LThumb
								{
									OFFSET 0.000000 0.000000 0.000000
									CHANNELS 3 Zrotation Yrotation Xrotation
									End Site
									{
										OFFSET 0.000000 0.000000 0.000000
									}
								}
							}
						}
					}
				}
				JOINT RightShoulder
				{
					OFFSET 0.000000 0.000000 0.000000
					CHANNELS 3 Zrotation Yrotation Xrotation
					JOINT RightArm
					{
						OFFSET -3.136600 1.374050 -0.404650
						CHANNELS 3 Zrotation Yrotation Xrotation
						JOINT RightForeArm
						{
							OFFSET -5.241900 -0.000000 -0.000000
							CHANNELS 3 Zrotation Yrotation Xrotation
							JOINT RightHand
							{
								OFFSET -3.444170 -0.000000 -0.000000
								CHANNELS 3 Zrotation Yrotation Xrotation
								JOINT RightFingerBase
								{
									OFFSET 0.000000 0.000000 0.000000
									CHANNELS 3 Zrotation Yrotation Xrotation
									JOINT RightHandIndex1
									{
										OFFSET -0.622530 -0.000000 -0.000000
										CHANNELS 3 Zrotation Yrotation Xrotation
										End Site
										{
											OFFSET 0.000000 0.000000 0.000000
										}
									}
								}
								JOINT RThumb
								{
									OFFSET 0.000000 0.000000 0.000000
									CHANNELS 3 Zrotation Yrotation Xrotation
									End Site
									{
										OFFSET 0.000000 0.000000 0.000000
									}
								}
							}
						}
					}
				}
			}
		}
	}
}
MOTION
Frames: 11
Frame Time: 0.008333
1.690046 16.211993 -3.447728 -4.425391 -35.784198 16.975262 9.207926 2.410134 -0.617491 -31.162797 -22.450596 -39.067147 6.529348 18.889700 54.954863 0.949450 -0.741536 -15.812327 0.560700 4.796200 13.328100 -12.818572 -3.639780 0.793342 14.233534 29.754247 -56.005910 -5.183815 -20.628007 51.543568 0.823648 -15.700209 -13.653845 -0.020100 0.914400 -2.513300 0.171120 0.740151 20.005225 0.913051 1.018376 -0.698602 -0.807044 0.776867 -6.321809 -5.271149 -0.625499 -19.471486 9.503268 -0.437665 -0.456122 3.984000 0.182200 1.061600 2.402603 -13.350996 2.615045 -87.536812 -13.060596 51.421507 125.777064 -51.099432 -93.310252 1.057649 -1.044440 57.377902 70.425461 32.911412 -124.026900 -7.125000 0.000000 0.000000 -83.708200 48.037200 -18.754700 -3.020973 13.705459 4.077855 80.429454 24.792200 44.498670 -131.921625 43.449949 -97.827548 -0.318482 -0.960049 14.543107 42.455921 -5.194754 -3.500600 7.125000 0.000000 0.000000 45.284600 -26.212800 31.801000 
1.582973 16.245595 -3.340223 -4.195158 -35.004352 16.749202 9.134349 2.421206 -0.573709 -31.464126 -22.695772 -38.039292 6.448276 18.718346 54.647899 0.941525 -0.647082 -15.805139 0.531200 4.670400 12.970800 -12.709769 -3.564095 0.707048 13.242561 30.307238 -55.284143 -3.849051 -19.548094 47.274029 0.793239 -15.628508 -14.266689 -0.094000 1.977300 -5.442900 0.037704 0.676174 20.052241 1.046310 0.938856 -0.701152 -0.344034 0.742036 -6.364231 -5.419920 -0.567132 -19.333188 9.036186 -0.338796 -0.553149 4.152900 0.194200 1.069600 2.447822 -13.367565 2.610361 -87.896246 -13.145775 51.793095 125.740541 -51.127936 -93.283891 1.060530 -1.037038 57.027358 70.524645 32.789907 -123.967500 -7.125000 0.000000 0.000000 -83.463300 47.981100 -18.299300 -2.969099 13.690094 4.091817 79.921199 24.761548 44.190462 -131.818477 43.491384 -97.737365 -0.314147 -0.961732 14.358792 42.987475 -5.063963 -3.433400 7.125000 0.000000 0.000000 45.280800 -25.788000 32.637300 
1.475468 16.278657 -3.233798 -3.995744 -34.181158 16.476539 9.057425 2.432977 -0.525708 -31.765278 -22.878329 -36.946931 6.372248 18.542895 54.353787 0.955331 -0.533149 -16.004885 0.408600 4.103700 11.368600 -12.586504 -3.487421 0.629734 12.209678 30.898550 -54.461015 -2.658105 -18.390833 43.165404 0.667557 -14.708646 -14.621032 -0.110900 2.146800 -5.911500 0.043816 0.561979 20.238781 1.144242 0.813349 -0.744600 -0.064965 0.682996 -6.583279 -5.406666 -0.470089 -19.066690 8.778198 -0.206727 -0.543196 3.988700 0.236600 1.001100 2.473953 -13.379271 2.603652 -88.046764 -13.038707 52.068520 125.773980 -51.118658 -93.312643 1.059348 -1.036050 56.446895 70.359506 32.465978 -124.420500 -7.125000 0.000000 0.000000 -82.626300 47.848500 -17.008300 -2.938161 13.693546 4.090570 79.693692 24.520996 44.118734 -131.780698 43.506220 -97.730069 -0.306196 -0.971024 14.041954 42.572470 -4.764283 -3.109700 7.125000 0.000000 0.000000 45.094500 -25.718100 32.445900 
1.368287 16.303940 -3.126617 -3.742262 -33.459291 16.268741 9.001982 2.441698 -0.496504 -32.092270 -23.055775 -36.002494 6.305971 18.394401 54.109175 0.937627 -0.236026 -16.102834 0.227900 3.072600 8.480900 -12.464125 -3.424067 0.550725 10.784453 31.836894 -53.767620 -1.627976 -17.199132 39.250428 0.610563 -14.062441 -14.313457 -0.109600 2.134800 -5.878500 0.142940 0.439859 20.077814 1.147363 0.676783 -0.674271 -0.088866 0.605804 -6.260081 -5.435470 -0.407402 -19.366103 8.726036 -0.105875 -0.476874 3.976200 0.291700 1.077500 2.479509 -13.372558 2.612604 -87.823943 -13.257611 52.204966 125.795295 -51.104601 -93.330152 1.058025 -1.022029 55.932943 70.932188 32.010213 -123.908700 -7.125000 0.000000 0.000000 -81.779800 47.613400 -15.331900 -2.932927 13.670915 4.103053 79.506944 24.714313 43.929139 -131.688546 43.539189 -97.689510 -0.289907 -0.981250 13.896391 42.079341 -3.976873 -2.349300 7.125000 0.000000 0.000000 44.675500 -25.216000 32.681800 
1.262942 16.321443 -3.016735 -3.796903 -32.743673 16.482535 8.962124 2.442106 -0.481162 -32.083449 -23.216276 -35.424209 6.245202 18.305065 53.923877 0.850940 0.538147 -16.056329 0.015100 0.792700 2.178700 -12.372304 -3.389040 0.497503 9.308358 33.070196 -53.407316 -0.768287 -16.043269 35.651171 0.691634 -14.390523 -13.285594 -0.275900 3.378500 -9.334300 0.460817 0.296374 19.661924 1.200012 0.555515 -0.644223 -0.069250 0.537829 -5.927809 -5.575425 -0.345097 -19.640356 8.673637 0.010029 -0.434988 3.993000 0.355600 1.133900 2.498267 -13.372666 2.615794 -87.766129 -13.506105 52.315376 125.660145 -51.157955 -93.223313 1.063138 -0.998271 55.516754 71.449525 32.050179 -123.120100 -7.125000 0.000000 0.000000 -82.100200 47.615000 -15.599800 -2.926604 13.643210 4.107303 79.267658 24.794646 43.827958 -131.687670 43.534559 -97.690270 -0.285106 -0.982846 13.645635 42.230003 -3.864868 -2.257000 7.125000 0.000000 0.000000 44.646000 -25.024000 32.996700 
1.156950 16.339487 -2.902423 -3.965914 -32.013496 16.751601 8.915444 2.449203 -0.466295 -31.959813 -23.304718 -34.842323 6.206219 18.224954 53.797121 0.759613 1.257638 -15.935062 0.042800 -1.334800 -3.670600 -12.289948 -3.368347 0.455206 7.765161 34.526727 -53.088577 -0.103741 -14.964964 32.505806 0.747443 -14.691444 -12.544212 -0.599500 4.956400 -13.784300 0.806511 0.140085 19.240495 1.292837 0.423379 -0.633469 0.033983 0.467049 -5.652121 -5.635366 -0.202486 -19.854210 8.535808 0.223383 -0.347043 3.938600 0.458500 1.190800 2.527568 -13.368430 2.615147 -87.774503 -13.609225 52.314825 125.508258 -51.216007 -93.101687 1.067226 -0.985368 55.108168 71.309606 32.287845 -123.152100 -7.125000 0.000000 0.000000 -82.623600 47.729500 -16.517900 -2.908333 13.622656 4.103769 79.195263 24.861108 43.999714 -131.733694 43.518578 -97.705373 -0.296486 -0.976533 13.248756 42.511835 -4.812188 -3.145700 7.125000 0.000000 0.000000 45.108500 -25.794000 32.321400 
1.050309 16.366390 -2.791893 -4.096018 -31.409661 16.784874 8.854269 2.463987 -0.447307 -31.825520 -23.261613 -34.139624 6.233952 18.131973 53.777768 0.865348 0.394974 -16.000640 0.000100 0.066300 0.182300 -12.199489 -3.361091 0.414920 5.860742 36.564246 -52.652027 0.359675 -13.984189 29.880608 0.793015 -15.051358 -12.429805 -0.619800 5.038200 -14.017700 1.043346 0.085397 19.077904 1.361983 0.401627 -0.594481 0.096495 0.452041 -5.470013 -5.529704 -0.000171 -19.890668 8.389960 0.486012 -0.396085 3.835500 0.577900 1.130800 2.547492 -13.355225 2.623338 -87.694872 -13.629702 52.339136 125.433064 -51.242325 -93.046646 1.061502 -0.979902 54.829096 71.586790 31.912091 -123.000100 -7.125000 0.000000 0.000000 -81.813800 47.542400 -15.062500 -2.885410 13.609066 4.112678 79.184421 25.026099 44.036450 -131.697999 43.543962 -97.652978 -0.301364 -0.970041 13.232194 43.003285 -5.182742 -3.541100 7.125000 0.000000 0.000000 45.335600 -25.888800 32.533900 
0.943344 16.387567 -2.682659 -3.966074 -30.823173 16.684832 8.815535 2.486044 -0.420830 -31.929833 -23.228380 -33.558813 6.302830 18.073314 53.883795 0.993927 -0.712723 -16.065353 0.056300 1.530800 4.210700 -12.112075 -3.366704 0.365722 3.668800 38.556815 -52.399138 0.656127 -13.178560 27.819367 0.886858 -15.757644 -12.204533 -0.524000 4.639100 -12.882100 1.114656 0.099750 18.917067 1.389001 0.434123 -0.553391 0.110462 0.466031 -5.306466 -5.339011 0.146322 -19.780705 8.194007 0.657556 -0.519034 3.676500 0.644300 1.004500 2.563322 -13.335681 2.636144 -87.552790 -13.694136 52.530872 125.392482 -51.256259 -93.018527 1.059254 -0.967697 54.670991 72.092481 31.684523 -122.406900 -7.125000 0.000000 0.000000 -81.448700 47.413600 -14.230600 -2.866154 13.596743 4.127743 79.116645 25.154863 43.814926 -131.599567 43.600339 -97.551901 -0.298167 -0.964590 13.452852 43.662554 -4.928652 -3.374700 7.125000 0.000000 0.000000 45.277400 -25.257800 33.691400 
0.836920 16.399344 -2.570183 -3.790922 -30.088150 16.480926 8.781824 2.525120 -0.391511 -32.173837 -23.210978 -32.830544 6.381673 18.035436 54.097419 0.988141 -0.543921 -16.156046 0.003000 0.352700 0.969100 -12.033523 -3.379694 0.320682 1.915696 40.090512 -52.067523 0.829820 -12.564427 26.331494 0.980147 -16.377952 -11.637715 -0.570100 4.835500 -13.439900 1.208776 0.045707 18.849170 1.428724 0.384029 -0.508945 0.166462 0.439305 -5.157792 -5.252140 0.244640 -19.737893 7.993654 0.782962 -0.513279 3.541100 0.691500 0.970600 2.578572 -13.322278 2.644716 -87.433052 -13.728783 52.699416 125.524851 -51.207325 -93.117852 1.063788 -0.961847 54.599840 72.167070 31.786290 -122.227900 -7.125000 0.000000 0.000000 -81.734400 47.462000 -14.659400 -2.843495 13.585614 4.136855 79.017414 25.195613 43.679446 -131.542109 43.629237 -97.520746 -0.295892 -0.969228 13.654029 43.215832 -4.721896 -3.132800 7.125000 0.000000 0.000000 45.143500 -25.316100 33.326900 
0.728766 16.408960 -2.461814 -3.862197 -29.277222 16.205897 8.727174 2.574489 -0.372579 -32.211661 -23.034205 -31.946872 6.508577 18.011659 54.462407 0.975086 -0.161992 -16.371024 0.018000 -0.865900 -2.379900 -11.965863 -3.395226 0.290793 1.039416 41.376726 -51.416843 0.923428 -12.118780 25.376035 1.032888 -16.702423 -11.682964 -0.542500 4.718900 -13.108400 1.407017 -0.103248 19.020275 1.531095 0.241217 -0.424132 0.364016 0.364766 -4.997773 -5.288404 0.429385 -19.878706 7.827397 1.048256 -0.466272 3.459400 0.814700 0.993700 2.596205 -13.319088 2.651950 -87.445061 -13.839020 52.604002 125.636331 -51.165642 -93.203076 1.060885 -0.965809 54.613806 72.376244 31.431511 -122.165500 -7.125000 0.000000 0.000000 -80.904400 47.273100 -13.221900 -2.805092 13.574006 4.152461 78.866948 25.400393 43.843735 -131.486804 43.647420 -97.506264 -0.291263 -0.978397 13.657037 42.494907 -4.526780 -2.881500 7.125000 0.000000 0.000000 44.974900 -25.528100 32.607000 
0.620180 16.410040 -2.359927 -3.988741 -28.435365 16.165788 8.703513 2.596488 -0.359105 -31.973604 -22.960348 -31.547027 6.720585 18.060181 55.018387 1.078557 -1.203831 -16.290677 0.000600 -0.163600 -0.449400 -11.919170 -3.398799 0.268763 0.603315 42.215113 -50.948871 0.983497 -11.837492 24.786372 1.022291 -16.636777 -12.485167 -0.266300 3.319800 -9.170400 1.631538 -0.244359 19.030027 1.640193 0.111128 -0.377107 0.538756 0.297153 -4.867484 -5.153769 0.685640 -19.979542 7.529119 1.388151 -0.460457 3.261200 0.961000 0.978500 2.625985 -13.306398 2.657180 -87.441726 -13.891947 52.497284 125.641832 -51.159372 -93.205936 1.059014 -0.966845 54.575939 72.336244 31.351343 -122.281500 -7.125000 0.000000 0.000000 -80.672300 47.228500 -12.863900 -2.761202 13.570631 4.167003 78.794327 25.640338 43.961734 -131.431397 43.672118 -97.467283 -0.286170 -0.981666 13.543223 42.497429 -4.362689 -2.729200 7.125000 0.000000 0.000000 44.900000 -25.364600 32.792400 
